<?xml version="1.0" encoding="UTF-8" standalone="no"?>
<!-- Created with Inkscape (http://www.inkscape.org/) -->

<svg
   xmlns:dc="http://purl.org/dc/elements/1.1/"
   xmlns:cc="http://creativecommons.org/ns#"
   xmlns:rdf="http://www.w3.org/1999/02/22-rdf-syntax-ns#"
   xmlns:svg="http://www.w3.org/2000/svg"
   xmlns="http://www.w3.org/2000/svg"
   xmlns:sodipodi="http://sodipodi.sourceforge.net/DTD/sodipodi-0.dtd"
   xmlns:inkscape="http://www.inkscape.org/namespaces/inkscape"
   sodipodi:docname="userpkgs.svg"
   inkscape:version="0.47 r22583"
   version="1.1"
   id="svg5620"
   height="32"
   width="32">
  <sodipodi:namedview
     id="base"
     pagecolor="#c0c0c0"
     bordercolor="#666666"
     borderopacity="1.0"
     inkscape:pageopacity="0"
     inkscape:pageshadow="2"
     inkscape:zoom="7.5202459"
     inkscape:cx="35.986706"
     inkscape:cy="17.807416"
     inkscape:document-units="px"
     inkscape:current-layer="layer1"
     showgrid="true"
     inkscape:window-width="934"
     inkscape:window-height="716"
     inkscape:window-x="33"
     inkscape:window-y="61"
     inkscape:window-maximized="0"
     showguides="true"
     inkscape:guide-bbox="true"
     gridtolerance="10000">
    <inkscape:grid
       spacingy="2px"
       spacingx="2px"
       snapvisiblegridlinesonly="true"
       enabled="true"
       visible="true"
       empspacing="5"
       id="grid6848"
       type="xygrid" />
  </sodipodi:namedview>
  <defs
     id="defs5622">
    <inkscape:perspective
       id="perspective21"
       inkscape:persp3d-origin="16 : 10.666667 : 1"
       inkscape:vp_z="32 : 16 : 1"
       inkscape:vp_y="0 : 1000 : 0"
       inkscape:vp_x="0 : 16 : 1"
       sodipodi:type="inkscape:persp3d" />
  </defs>
  <metadata
     id="metadata5625">
    <rdf:RDF>
      <cc:Work
         rdf:about="">
        <dc:format>image/svg+xml</dc:format>
        <dc:type
           rdf:resource="http://purl.org/dc/dcmitype/StillImage" />
        <dc:title />
      </cc:Work>
    </rdf:RDF>
  </metadata>
  <g
     style="display:inline"
     inkscape:label="Layer"
     id="layer2"
     inkscape:groupmode="layer">
    <rect
       y="-8"
       x="-10"
       height="50"
       width="50"
       id="rect6872"
       style="fill:#c0c0c0;fill-opacity:1;stroke:#008080;stroke-width:1.11803401" />
  </g>
  <g
     style="display:inline"
     transform="translate(0,-1020.3622)"
     id="layer1"
     inkscape:groupmode="layer"
     inkscape:label="Layer 1">
    <path
       style="fill:#008080;fill-opacity:1;stroke:none"
       d=""
       id="path4426"
       transform="translate(0,1020.3622)" />
    <g
       id="g4575"
       transform="translate(16,1035.3622)"
       inkscape:label="Grid_Polar:R3:A6">
      <circle
         d="M 4,0 C 4,2.209139 2.209139,4 0,4 -2.209139,4 -4,2.209139 -4,0 c 0,-2.209139 1.790861,-4 4,-4 2.209139,0 4,1.790861 4,4 z"
         id="circle4577"
         cy="0"
         r="4"
         cx="0"
         style="fill:none;stroke:#000000;stroke-width:1"
         inkscape:label="MajorDivCircle1:R4.0"
         sodipodi:cx="0"
         sodipodi:cy="0"
         sodipodi:rx="4"
         sodipodi:ry="4" />
      <circle
         d="M 8,0 C 8,4.418278 4.418278,8 0,8 -4.418278,8 -8,4.418278 -8,0 c 0,-4.418278 3.581722,-8 8,-8 4.418278,0 8,3.581722 8,8 z"
         id="circle4579"
         cy="0"
         r="8"
         cx="0"
         style="fill:none;stroke:#000000;stroke-width:1"
         inkscape:label="MajorDivCircle2:R8.0"
         sodipodi:cx="0"
         sodipodi:cy="0"
         sodipodi:rx="8"
         sodipodi:ry="8" />
      <circle
         d="M 12,0 C 12,6.627417 6.627417,12 0,12 -6.627417,12 -12,6.627417 -12,0 c 0,-6.627417 5.372583,-12 12,-12 6.627417,0 12,5.372583 12,12 z"
         id="circle4581"
         cy="0"
         r="12"
         cx="0"
         style="fill:none;stroke:#000000;stroke-width:1"
         inkscape:label="MajorDivCircle3:R12.0"
         sodipodi:cx="0"
         sodipodi:cy="0"
         sodipodi:rx="12"
         sodipodi:ry="12" />
      <path
         id="path4583"
         d="M 0,0 0,12"
         style="fill:none;stroke:#000000;stroke-width:1"
         inkscape:label="RadialGridline0" />
      <path
         id="path4585"
         d="M 0,0 10.392305,6"
         style="fill:none;stroke:#000000;stroke-width:1"
         inkscape:label="RadialGridline1" />
      <path
         id="path4587"
         d="M 0,0 10.392305,-6"
         style="fill:none;stroke:#000000;stroke-width:1"
         inkscape:label="RadialGridline2" />
      <path
         id="path4589"
         d="M 0,0 0,-12"
         style="fill:none;stroke:#000000;stroke-width:1"
         inkscape:label="RadialGridline3" />
      <path
         id="path4591"
         d="M 0,0 -10.392305,-6"
         style="fill:none;stroke:#000000;stroke-width:1"
         inkscape:label="RadialGridline4" />
      <path
         id="path4593"
         d="M 0,0 -10.392305,6"
         style="fill:none;stroke:#000000;stroke-width:1"
         inkscape:label="RadialGridline5" />
      <circle
         d="M 1,0 C 1,0.55228475 0.55228475,1 0,1 -0.55228475,1 -1,0.55228475 -1,0 c 0,-0.55228475 0.44771525,-1 1,-1 0.55228475,0 1,0.44771525 1,1 z"
         id="circle4595"
         cy="0"
         r="1"
         cx="0"
         style="fill:#000000;stroke:#000000;stroke-width:0"
         inkscape:label="CentreDot"
         sodipodi:cx="0"
         sodipodi:cy="0"
         sodipodi:rx="1"
         sodipodi:ry="1" />
    </g>
    <path
       style="fill:#008080;fill-opacity:1;stroke:#008080;stroke-opacity:1"
       d="m 22.196196,1029.4958 c -1.07483,-1.1813 -2.761388,-2.127 -4.478589,-2.5113 l -1.102124,-0.2467 0,-1.3781 c 0,-1.5856 -0.06116,-1.5529 1.993838,-1.0685 1.955375,0.461 3.954636,1.6061 5.510591,3.1565 0.747924,0.7452 1.359863,1.4382 1.359863,1.5398 0,0.1017 -0.522045,0.4959 -1.1601,0.876 l -1.160099,0.691 -0.96338,-1.0587 0,0 z"
       id="path4650" />
    <path
       style="fill:#008080;fill-opacity:1;stroke:#008080;stroke-width:0.18050922;stroke-miterlimit:4;stroke-opacity:1;stroke-dasharray:none"
       d="m 18.892978,1031.8248 c -0.387272,-0.331 -1.044539,-0.6934 -1.460594,-0.8055 l -0.756463,-0.2036 0,-1.4277 0,-1.4276 0.654749,0.1307 c 1.188054,0.2372 3.058508,1.2588 3.925418,2.1438 0.469224,0.4791 0.831854,0.8903 0.805845,0.9138 -0.196433,0.1773 -2.210359,1.2924 -2.322594,1.286 -0.07823,0 -0.459089,-0.279 -0.846361,-0.6099 l 0,0 z"
       id="path4652" />
    <path
       style="fill:#008080;fill-opacity:1;stroke:#008080;stroke-width:0.18050922;stroke-miterlimit:4;stroke-opacity:1;stroke-dasharray:none"
       d="m 21.503853,1037.8472 -1.1009,-0.6098 0,-1.8748 0,-1.8748 1.158237,-0.6367 1.158238,-0.6368 0.226083,0.5676 c 0.519026,1.303 0.376508,5.2319 -0.202769,5.5899 -0.07589,0.047 -0.633394,-0.1892 -1.238889,-0.5246 l 0,0 z"
       id="path4654" />
    <path
       style="fill:#008080;fill-opacity:1;stroke:#008080;stroke-width:0.18050922;stroke-miterlimit:4;stroke-opacity:1;stroke-dasharray:none"
       d="m 18.242588,1035.9884 c -1.072439,-0.6373 -1.071849,-0.6226 -0.04899,-1.222 0.512321,-0.3002 0.960887,-0.5152 0.996815,-0.4778 0.206795,0.2157 0.164277,2.191 -0.04659,2.1645 -0.0831,-0.01 -0.488658,-0.2196 -0.901233,-0.4647 z"
       id="path4656" />
    <path
       style="fill:#008080;fill-opacity:1;stroke:#008080;stroke-width:0.18050922;stroke-miterlimit:4;stroke-opacity:1;stroke-dasharray:none"
       d="m 13.430877,1042.2431 c -1.285419,-0.5288 -2.036131,-1.0294 -2.88812,-1.9262 -0.6679635,-0.703 -0.6547283,-0.729 0.805852,-1.5819 l 1.018714,-0.5948 0.581832,0.5818 c 0.320008,0.32 1.01747,0.7366 1.549916,0.9257 l 0.968083,0.3438 0,1.363 c 0,1.2805 -0.02741,1.3626 -0.453288,1.3581 -0.249308,0 -0.961653,-0.2139 -1.582989,-0.4695 l 0,0 z"
       id="path4658" />
    <path
       style="fill:#008080;fill-opacity:1;stroke:#008080;stroke-width:0.18050922;stroke-miterlimit:4;stroke-opacity:1;stroke-dasharray:none"
       d="m 12.768937,1036.3257 c -0.180837,-0.1808 -0.148485,-1.8282 0.03817,-1.9436 0.08822,-0.054 0.578432,0.145 1.089349,0.4434 l 0.92894,0.5425 -0.96711,0.54 c -0.53191,0.297 -1.022117,0.485 -1.089349,0.4177 z"
       id="path4660" />
    <path
       style="fill:#008080;fill-opacity:1;stroke:#008080;stroke-width:0.18050922;stroke-miterlimit:4;stroke-opacity:1;stroke-dasharray:none"
       d="m 16.675921,1033.1684 c 0,-0.6206 0.07725,-1.1284 0.171669,-1.1284 0.261293,0 1.540751,0.9003 1.540751,1.0841 0,0.089 -0.385294,0.3891 -0.85621,0.6672 l -0.85621,0.5056 0,-1.1285 z"
       id="path4664" />
    <path
       style="fill:#008080;fill-opacity:1;stroke:#008080;stroke-width:0.18050922;stroke-miterlimit:4;stroke-opacity:1;stroke-dasharray:none"
       d=""
       id="path4666"
       transform="translate(0,1020.3622)" />
    <path
       style="fill:#008080;fill-opacity:1;stroke:#008080;stroke-width:0.18050922;stroke-miterlimit:4;stroke-opacity:1;stroke-dasharray:none"
       d="m 16.675921,1045.3653 0,-1.3812 1.342375,-0.3313 c 1.681603,-0.415 2.912608,-1.1296 4.170449,-2.421 l 0.981179,-1.0073 1.034049,0.5694 c 0.568727,0.3132 1.105779,0.6331 1.19345,0.7108 0.08767,0.078 -0.19431,0.5695 -0.626624,1.0926 -1.584448,1.9174 -4.223619,3.4945 -6.575432,3.9292 -0.654788,0.1211 -1.264531,0.2201 -1.354985,0.2201 -0.09045,0 -0.164461,-0.6216 -0.164461,-1.3813 z"
       id="path4668" />
  </g>
</svg>
